<?xml version="1.0" encoding="utf-8"?>
<?xml-stylesheet type="text/xsl" href="rss1.xsl"?>
<rss version="2.0" xmlns:atom="http://www.w3.org/2005/Atom" xmlns:content="http://purl.org/rss/1.0/modules/content/" xmlns:dc="http://purl.org/dc/elements/1.1/" xmlns:media="http://search.yahoo.com/mrss/">
<channel>
 <title>Getty</title>
 <link>http://www.gettyimg.com/</link>
 <atom:link href="http://www.gettyimg.com/" rel="self" type="application/rss+xml" />

 
                <item>
                <title><![CDATA[【Apple Music】WEB-RiP - Iggy Azalea &amp; Alice Chater - Lola (1080p)]]></title>
                <link><![CDATA[https://sharemania.us/threads/iggy-azalea-alice-chater-lola-1080p.242463/]]></link>
                <description><![CDATA[<article>
<blockquote class="messageText SelectQuoteContainer ugc baseHtml">
<img src="https://i.postimg.cc/2js5Jmgs/Iggy-Azalea-Alice-Chater-Lola-mp4.jpg" class="bbCodeImage LbImage" alt="[​IMG]" data-url="https://i.postimg.cc/2js5Jmgs/Iggy-Azalea-Alice-Chater-Lola-mp4.jpg" style=""><br>
<br>
<div class="bbCodeBlock bbCodeCode">
<div class="type">Code:</div>
<pre>General
Complete name                  : G:\Новая папка\Iggy Azalea &amp; Alice Chater - Lola.mp4
Format                         : MPEG-4
Format profile                 : Base Media
Codec ID                       : isom (isom/iso2/avc1/mp41)
File size                      : 270 MiB
Duration                       : 3 min 48 s
Overall bit rate               : 9 914 kb/s
Frame rate                     : 23.976 FPS
Movie name                     : Lola
Performer                      : Iggy Azalea &amp; Alice Chater
Genre                          : Pop
ContentType                    : Music Video
Recorded date                  : 2019-11-08 08:00:00 UTC
Writing application            : Lavf56.30.100
Copyright                      : ℗ 2019 Bad Dreams Records / EMPIRE

Video
ID                             : 1
Format                         : AVC
Format/Info                    : Advanced Video Codec
Format profile                 : High@L4
Format settings                : CABAC / 4 Ref Frames
Format settings, CABAC         : Yes
Format settings, Reference fra : 4 frames
Format settings, Slice count   : 8 slices per frame
Codec ID                       : avc1
Codec ID/Info                  : Advanced Video Coding
Duration                       : 3 min 48 s
Bit rate                       : 9 656 kb/s
Width                          : 1 920 pixels
Height                         : 1 080 pixels
Display aspect ratio           : 16:9
Frame rate mode                : Constant
Frame rate                     : 23.976 (24000/1001) FPS
Color space                    : YUV
Chroma subsampling             : 4:2:0
Bit depth                      : 8 bits
Scan type                      : Progressive
Bits/(Pixel*Frame)             : 0.194
Stream size                    : 263 MiB (97%)
Color range                    : Limited
Color primaries                : BT.709
Transfer characteristics       : BT.709
Matrix coefficients            : BT.709
Codec configuration box        : avcC

Audio
ID                             : 2
Format                         : AAC LC
Format/Info                    : Advanced Audio Codec Low Complexity
Codec ID                       : mp4a-40-2
Duration                       : 3 min 48 s
Bit rate mode                  : Constant
Bit rate                       : 255 kb/s
Channel(s)                     : 2 channels
Channel layout                 : L R
Sampling rate                  : 48.0 kHz
Frame rate                     : 46.875 FPS (1024 SPF)
Compression mode               : Lossy
Stream size                    : 6.95 MiB (3%)
Default                        : Yes
Alternate group                : 1

</pre>
</div>
<div class="bbCodeBlock bbCodeVfcHH HiddenContent">
<div class="attribution type">Hidden Content:</div>
<blockquote>You must either reply or click 'Like' to see the hidden information contained here.</blockquote>
</div>
<div class="messageTextEndMarker">&nbsp;</div>
</blockquote>
</article>]]></description>
                <author><![CDATA[vitalya3]]></author>
                </item>

                
                <item>
                <title><![CDATA[【Requests】[REQ AUD] - Sarah Connor - Skin on Skin (CD Single with Remix)]]></title>
                <link><![CDATA[https://sharemania.us/threads/sarah-connor-skin-on-skin-cd-single-with-remix.242457/]]></link>
                <description><![CDATA[<article>
<blockquote class="messageText SelectQuoteContainer ugc baseHtml">
I need European CD Single (or maxi single) with <b>Kayrob dance remix</b><br>
<br>
<a href="https://en.wikipedia.org/wiki/Skin_on_Skin_(Sarah_Connor_song)" target="_blank" class="externalLink" rel="nofollow">https://en.wikipedia.org/wiki/Skin_on_Skin_(Sarah_Connor_song)</a><br>
<br>
<span data-s9e-mediaembed="youtube" style="display:inline-block;width:100%;max-width:640px"><span style="display:block;overflow:hidden;position:relative;padding-bottom:56.25%"><iframe allowfullscreen="" loading="lazy" scrolling="no" style="background:url(https://i.ytimg.com/vi/ToT5ETQ1st4/hqdefault.jpg) 50% 50% / cover;border:0;height:100%;left:0;position:absolute;width:100%" src="https://www.youtube.com/embed/ToT5ETQ1st4"></iframe></span></span>
<div class="messageTextEndMarker">&nbsp;</div>
</blockquote>
</article>]]></description>
                <author><![CDATA[melodie]]></author>
                </item>

                
                <item>
                <title><![CDATA[【MASTER &amp; MASTER RIP】MASTER - Don Diablo - Starlight (1080)]]></title>
                <link><![CDATA[https://sharemania.us/threads/don-diablo-starlight-1080.242460/]]></link>
                <description><![CDATA[<article>
<blockquote class="messageText SelectQuoteContainer ugc baseHtml">
<div style="text-align: center"><img src="https://i.ibb.co/J5SHtGt/20240418164432.gif" class="bbCodeImage LbImage" alt="[​IMG]" data-url="https://i.ibb.co/J5SHtGt/20240418164432.gif" style=""><br>
​</div>
<div class="ToggleTriggerAnchor bbCodeSpoilerContainer">
<button type="button" class="button bbCodeSpoilerButton ToggleTrigger Tooltip JsOnly" data-target="> .SpoilerTarget"><span>Spoiler: <span class="SpoilerTitle">MASTER</span></span></button>
<div class="SpoilerTarget bbCodeSpoilerText">
<div class="bbCodeBlock bbCodeCode">
<div class="type">Code:</div>
<pre>General
Complete name                            : Don Diablo - Starlight.mp4
Format                                   : MPEG-4
Format profile                           : Base Media / Version 2
Codec ID                                 : mp42 (mp42/mp41)
File size                                : 2.81 GiB
Duration                                 : 4 min 14 s
Overall bit rate mode                    : Variable
Overall bit rate                         : 94.6 Mb/s
Frame rate                               : 24.000 FPS
Encoded date                             : 2014-01-31 09:18:08 UTC
Tagged date                              : 2014-01-31 09:18:55 UTC
TIM                                      : 00:00:00:00
TSC                                      : 24
TSZ                                      : 1

Video
ID                                       : 1
Format                                   : AVC
Format/Info                              : Advanced Video Codec
Format profile                           : Main@L5.1
Format settings                          : CABAC / 3 Ref Frames
Format settings, CABAC                   : Yes
Format settings, Reference frames        : 3 frames
Format settings, GOP                     : M=4, N=24
Codec ID                                 : avc1
Codec ID/Info                            : Advanced Video Coding
Duration                                 : 4 min 14 s
Bit rate mode                            : Variable
Bit rate                                 : 94.3 Mb/s
Maximum bit rate                         : 97.9 Mb/s
Width                                    : 1 920 pixels
Height                                   : 720 pixels
Display aspect ratio                     : 2.667
Frame rate mode                          : Variable
Frame rate                               : 24.000 FPS
Minimum frame rate                       : 24.000 FPS
Maximum frame rate                       : 24.024 FPS
Standard                                 : NTSC
Color space                              : YUV
Chroma subsampling                       : 4:2:0
Bit depth                                : 8 bits
Scan type                                : Progressive
Bits/(Pixel*Frame)                       : 2.843
Stream size                              : 2.80 GiB (100%)
Language                                 : English
Encoded date                             : 2014-01-31 09:18:08 UTC
Tagged date                              : 2014-01-31 09:18:08 UTC
Color range                              : Limited
Codec configuration box                  : avcC

Audio
ID                                       : 2
Format                                   : AAC LC
Format/Info                              : Advanced Audio Codec Low Complexity
Codec ID                                 : 2 / 40 / mp4a-40-2
Duration                                 : 4 min 14 s
Source duration                          : 4 min 14 s
Bit rate mode                            : Variable
Bit rate                                 : 317 kb/s
Maximum bit rate                         : 449 kb/s
Channel(s)                               : 2 channels
Channel layout                           : L R
Sampling rate                            : 48.0 kHz
Frame rate                               : 46.875 FPS (1024 SPF)
Compression mode                         : Lossy
Stream size                              : 9.64 MiB (0%)
Source stream size                       : 9.64 MiB (0%)
Language                                 : English
Encoded date                             : 2014-01-31 09:18:08 UTC
Tagged date                              : 2014-01-31 09:18:08 UTC

</pre>
</div><div style="text-align: center">​</div></div>
</div><div style="text-align: center"><br>
<div class="bbCodeBlock bbCodeVfcHH HiddenContent">
<div class="attribution type">Hidden Content:</div>
<blockquote>You must reply before you can see the hidden data contained here.</blockquote>
</div></div>
<div class="messageTextEndMarker">&nbsp;</div>
</blockquote>
</article>]]></description>
                <author><![CDATA[fstambuk]]></author>
                </item>

                
                <item>
                <title><![CDATA[【Apple Music】WEB-RiP - Dobson - Legacy (1080p)]]></title>
                <link><![CDATA[https://sharemania.us/threads/dobson-legacy-1080p.242458/]]></link>
                <description><![CDATA[<article>
<blockquote class="messageText SelectQuoteContainer ugc baseHtml">
<img src="https://i.postimg.cc/G2bkCdWh/Dobson-Legacy-mp4.jpg" class="bbCodeImage LbImage" alt="[​IMG]" data-url="https://i.postimg.cc/G2bkCdWh/Dobson-Legacy-mp4.jpg" style=""><br>
<br>
<div class="bbCodeBlock bbCodeCode">
<div class="type">Code:</div>
<pre>General
Complete name                  : G:\Новая папка\Dobson - Legacy.mp4
Format                         : MPEG-4
Format profile                 : Base Media
Codec ID                       : isom (isom/iso2/avc1/mp41)
File size                      : 197 MiB
Duration                       : 3 min 58 s
Overall bit rate               : 6 916 kb/s
Frame rate                     : 23.976 FPS
Movie name                     : Legacy
Performer                      : Fefe Dobson
Genre                          : Pop
ContentType                    : Music Video
Recorded date                  : 2013-01-01 08:00:00 UTC
Writing application            : Lavf56.30.100
Copyright                      : ℗ 2013 21 Music, a division of 21 Entertainment Group Inc.

Video
ID                             : 1
Format                         : AVC
Format/Info                    : Advanced Video Codec
Format profile                 : High@L4
Format settings                : CABAC / 4 Ref Frames
Format settings, CABAC         : Yes
Format settings, Reference fra : 4 frames
Format settings, Slice count   : 8 slices per frame
Codec ID                       : avc1
Codec ID/Info                  : Advanced Video Coding
Duration                       : 3 min 58 s
Bit rate                       : 6 661 kb/s
Width                          : 1 904 pixels
Height                         : 1 064 pixels
Display aspect ratio           : 16:9
Frame rate mode                : Constant
Frame rate                     : 23.976 (23976/1000) FPS
Color space                    : YUV
Chroma subsampling             : 4:2:0
Bit depth                      : 8 bits
Scan type                      : Progressive
Bits/(Pixel*Frame)             : 0.137
Stream size                    : 189 MiB (96%)
Language                       : English
Color range                    : Limited
Color primaries                : BT.709
Transfer characteristics       : BT.709
Matrix coefficients            : BT.709
Codec configuration box        : avcC

Audio
ID                             : 2
Format                         : AAC LC
Format/Info                    : Advanced Audio Codec Low Complexity
Codec ID                       : mp4a-40-2
Duration                       : 3 min 58 s
Bit rate mode                  : Constant
Bit rate                       : 253 kb/s
Channel(s)                     : 2 channels
Channel layout                 : L R
Sampling rate                  : 48.0 kHz
Frame rate                     : 46.875 FPS (1024 SPF)
Compression mode               : Lossy
Stream size                    : 7.20 MiB (4%)
Default                        : Yes
Alternate group                : 1

</pre>
</div>
<div class="bbCodeBlock bbCodeVfcHH HiddenContent">
<div class="attribution type">Hidden Content:</div>
<blockquote>You must either reply or click 'Like' to see the hidden information contained here.</blockquote>
</div>
<div class="messageTextEndMarker">&nbsp;</div>
</blockquote>
</article>]]></description>
                <author><![CDATA[vitalya3]]></author>
                </item>

                
                <item>
                <title><![CDATA[【SD Live Performances】WEB-DL - Akon Live in 2008 AMZN WEB-DL DDP2.0 H.264-SiGLA]]></title>
                <link><![CDATA[https://sharemania.us/threads/akon-live-in-2008-amzn-web-dl-ddp2-0-h-264-sigla.242464/]]></link>
                <description><![CDATA[<article>
<blockquote class="messageText SelectQuoteContainer ugc baseHtml">
<img src="https://ptpimg.me/k6j676.jpg" class="bbCodeImage LbImage" alt="[​IMG]" data-url="https://ptpimg.me/k6j676.jpg" style=""><br>
<div class="ToggleTriggerAnchor bbCodeSpoilerContainer">
<button type="button" class="button bbCodeSpoilerButton ToggleTrigger Tooltip JsOnly" data-target="> .SpoilerTarget"><span>Spoiler: <span class="SpoilerTitle">MediaInfo</span></span></button>
<div class="SpoilerTarget bbCodeSpoilerText">General<br>
Unique ID : 75329210460548480009555256738949172394 (0x38ABE0D274B46E8153A6C8323EB90CAA)<br>
Complete name : Akon.Live.in.2008.2008.480p.AMZN.WEB-DL.DDP2.0.H.264-SiGLA.mkv<br>
Format : Matroska<br>
Format version : Version 4<br>
File size : 319 MiB<br>
Duration : 23 min 43 s<br>
Overall bit rate mode : Constant<br>
Overall bit rate : 1 877 kb/s<br>
Movie name : Akon.-.Live.in.2008.2008.480p.AMZN.WEB-DL.DDP2.0.H.264-SiGLA<br>
Writing application : mkvmerge v62.0.0 ('SiGLA') 64-bit<br>
Writing library : libebml v1.4.2 + libmatroska v1.6.4<br>
<br>
Video<br>
ID : 1<br>
Format : AVC<br>
Format/Info : Advanced Video Codec<br>
Format profile : Main@L3<br>
Format settings : CABAC / 4 Ref Frames<br>
Format settings, CABAC : Yes<br>
Format settings, Reference frames : 4 frames<br>
Codec ID : V_MPEG4/ISO/AVC<br>
Duration : 23 min 43 s<br>
Bit rate mode : Constant<br>
Bit rate : 1 652 kb/s<br>
Nominal bit rate : 2 000 kb/s<br>
Width : 720 pixels<br>
Height : 404 pixels<br>
Display aspect ratio : 16:9<br>
Frame rate mode : Constant<br>
Frame rate : 25.000 FPS<br>
Color space : YUV<br>
Chroma subsampling : 4:2:0<br>
Bit depth : 8 bits<br>
Scan type : Progressive<br>
Bits/(Pixel*Frame) : 0.227<br>
Stream size : 280 MiB (88%)<br>
Default : Yes<br>
Forced : No<br>
Color range : Limited<br>
Color primaries : BT.709<br>
Transfer characteristics : BT.709<br>
Matrix coefficients : BT.709<br>
<br>
Audio<br>
ID : 2<br>
Format : E-AC-3<br>
Format/Info : Enhanced AC-3<br>
Commercial name : Dolby Digital Plus<br>
Codec ID : A_EAC3<br>
Duration : 23 min 43 s<br>
Bit rate mode : Constant<br>
Bit rate : 224 kb/s<br>
Channel(s) : 2 channels<br>
Channel layout : L R<br>
Sampling rate : 48.0 kHz<br>
Frame rate : 31.250 FPS (1536 SPF)<br>
Compression mode : Lossy<br>
Stream size : 38.0 MiB (12%)<br>
Title : English<br>
Language : English<br>
Service kind : Complete Main<br>
Default : Yes<br>
Forced : No</div>
</div>
<div class="bbCodeBlock bbCodeVfcHH HiddenContent">
<div class="attribution type">Hidden Content:</div>
<blockquote>You must either reply or click 'Like' to see the hidden information contained here.</blockquote>
</div>
<div class="messageTextEndMarker">&nbsp;</div>
</blockquote>
</article>]]></description>
                <author><![CDATA[-C.A.A]]></author>
                </item>

                
                <item>
                <title><![CDATA[【Apple Music】WEB-RiP - Dua Lipa - Training Season [Apple HD Music Video]]]></title>
                <link><![CDATA[https://sharemania.us/threads/dua-lipa-training-season-apple-hd-music-video.242461/]]></link>
                <description><![CDATA[<article>
<blockquote class="messageText SelectQuoteContainer ugc baseHtml">
<span style="font-size: 22px"><b>Dua Lipa - Training Season [Apple HD Music Video]</b></span><br>
<br>
<img src="https://imgur.com/dL1SNFi.jpg" class="bbCodeImage LbImage" alt="[​IMG]" data-url="https://imgur.com/dL1SNFi.jpg" style=""><br>
<br>
<div class="bbCodeBlock bbCodeCode">
<div class="type">Code:</div>
<pre>General
Format                         : MPEG-4
Codec ID                       : M4V  (isom/iso4/M4V /mp42)
File size                      : 279 MiB
Duration                       : 3 min 48 s
Overall bit rate mode          : Variable
Overall bit rate               : 10.2 Mb/s
Movie name                     : Training Season
Performer                      : Dua Lipa
Genre                          : Pop
ContentType                    : Music Video
Recorded date                  : UTC 2024-02-15 08:00:00
Encoded date                   : UTC 2024-03-17 05:01:02
Tagged date                    : UTC 2024-03-17 05:01:02
Copyright                      : ℗ Under exclusive license to Warner Records UK, a division of Warner Music UK Limited, © 2024 Radical22 Limited
Cover                          : Yes
Rating                         : None
GenreID                        : 1614
AppleStoreCountry              : Canada
AlbumTitleID                   : 1031397873
AppleStoreCatalogID            : 1731262552

Video
ID                             : 2
Format                         : AVC
Format/Info                    : Advanced Video Codec
Format profile                 : High@L4
Format settings                : CABAC / 5 Ref Frames
Format settings, CABAC         : Yes
Format settings, Reference fra : 5 frames
Codec ID                       : avc1
Codec ID/Info                  : Advanced Video Coding
Duration                       : 3 min 48 s
Bit rate                       : 9 970 kb/s
Maximum bit rate               : 17.1 Mb/s
Width                          : 1 440 pixels
Height                         : 1 080 pixels
Display aspect ratio           : 4:3
Frame rate mode                : Constant
Frame rate                     : 23.976 (24000/1001) FPS
Color space                    : YUV
Chroma subsampling             : 4:2:0
Bit depth                      : 8 bits
Scan type                      : Progressive
Bits/(Pixel*Frame)             : 0.267
Stream size                    : 271 MiB (97%)
Title                          : Core Media Video
Encoded date                   : UTC 2024-02-22 17:06:03
Tagged date                    : UTC 2024-03-17 05:01:11
Color range                    : Limited
Color primaries                : BT.709
Transfer characteristics       : BT.709
Matrix coefficients            : BT.709
Codec configuration box        : avcC

Audio
ID                             : 1
Format                         : AAC LC
Format/Info                    : Advanced Audio Codec Low Complexity
Codec ID                       : mp4a-40-2
Duration                       : 3 min 48 s
Duration_LastFrame             : -21 ms
Bit rate mode                  : Variable
Bit rate                       : 265 kb/s
Maximum bit rate               : 372 kb/s
Channel(s)                     : 2 channels
Channel layout                 : L R
Sampling rate                  : 48.0 kHz
Frame rate                     : 46.875 FPS (1024 SPF)
Compression mode               : Lossy
Stream size                    : 7.12 MiB (3%)
Title                          : Core Media Audio
Encoded date                   : UTC 2024-02-22 17:05:54
Tagged date                    : UTC 2024-03-17 05:01:11
</pre>
</div>
<div class="bbCodeBlock bbCodeVfcHH HiddenContent">
<div class="attribution type">Hidden Content:</div>
<blockquote>You must reply before you can see the hidden data contained here.</blockquote>
</div>
<div class="messageTextEndMarker">&nbsp;</div>
</blockquote>
</article>]]></description>
                <author><![CDATA[abby0511]]></author>
                </item>

                
                <item>
                <title><![CDATA[【Requests】[REQ AUD] - Ho Gayi Hai Mohabbat (Aslam &amp; Shibani)]]></title>
                <link><![CDATA[https://sharemania.us/threads/ho-gayi-hai-mohabbat-aslam-shibani.242459/]]></link>
                <description><![CDATA[<article>
<blockquote class="messageText SelectQuoteContainer ugc baseHtml">
Please share this flac audio.<br>
<br>
<a href="https://www.qobuz.com/be-nl/album/ho-gayi-hai-mohabbat-aslam-shibani/f89sspri6hqxc" target="_blank" class="externalLink" rel="nofollow">https://www.qobuz.com/be-nl/album/ho-gayi-hai-mohabbat-aslam-shibani/f89sspri6hqxc</a><br>
<br>
Full album or track #8
<div class="messageTextEndMarker">&nbsp;</div>
</blockquote>
</article>]]></description>
                <author><![CDATA[The Architect]]></author>
                </item>

                
                <item>
                <title><![CDATA[【Requests】[REQ AUD] - MIKA - Life In Cartoon Motion (Asian Tour Edition) in FLAC]]></title>
                <link><![CDATA[https://sharemania.us/threads/mika-life-in-cartoon-motion-asian-tour-edition-in-flac.242462/]]></link>
                <description><![CDATA[<article>
<blockquote class="messageText SelectQuoteContainer ugc baseHtml">
I'm looking for this album in FLAC/lossless. I'd even be okay with high quality mp3/m4a.
<div class="messageTextEndMarker">&nbsp;</div>
</blockquote>
</article>]]></description>
                <author><![CDATA[MusicFanatic94]]></author>
                </item>

                </channel></rss>